<svg width="421" height="52" viewBox="0 0 421 52" fill="none" xmlns="http://www.w3.org/2000/svg">
<g clip-path="url(#clip0_489_907)">
<path d="M371.158 11.0722V21.0223H415.53V31.2212H371.158V40.9226H420.505V50.8727H356.232V1.12207H420.505V11.0722H371.158Z" fill="#6B1FFF"/>
<path d="M226.821 1.12207H206.682L178.866 50.8727H193.791L201.189 37.6441H232.313L239.711 50.8727H254.636L226.821 1.12207ZM206.652 27.873L216.751 9.80366L226.851 27.873H206.652Z" fill="#6B1FFF"/>
<path d="M135.538 11.0722V21.0223H179.906V31.2212H135.538V50.8727H120.613V1.12207H184.881V11.0722H135.538Z" fill="#6B1FFF"/>
<path d="M348.769 1.12207V50.8727H333.844V9.17173L312.999 50.8727H296.337L275.492 9.17173V50.8727H260.566V1.12207H284.894L304.665 40.6639L324.441 1.12207H348.769Z" fill="#6B1FFF"/>
<path d="M51.6635 17.1771C51.9961 17.4845 52.3521 17.7657 52.7282 18.0179C53.1554 18.3068 53.6006 18.5676 54.0614 18.7989C54.5724 19.0552 55.0973 19.2828 55.6336 19.4806C56.2151 19.6998 56.8079 19.8874 57.4096 20.0427L57.7133 20.1224C58.4241 20.3054 59.145 20.4465 59.8724 20.5452C60.5634 20.6382 61.2596 20.6881 61.9569 20.6945C62.5989 20.7003 63.2404 20.6621 63.8772 20.5801C64.4469 20.506 65.0095 20.3845 65.559 20.2169C66.0725 20.0611 66.5983 19.9497 67.1309 19.8836C67.7285 19.8123 68.3303 19.7823 68.9319 19.794C69.5978 19.8046 70.2624 19.8561 70.922 19.9482C71.6325 20.0472 72.3369 20.1867 73.0315 20.3662C73.6484 20.5254 74.2452 20.7094 74.8223 20.9133C75.3995 21.1173 75.9567 21.3512 76.4791 21.6C76.9897 21.8437 77.4878 22.1126 77.9716 22.4059C78.4236 22.6806 78.8605 22.9796 79.2802 23.3014C79.6908 23.6218 80.0765 23.9728 80.4344 24.3512C80.7541 24.6893 81.036 25.0613 81.2751 25.4606C81.4982 25.8091 81.6661 26.1901 81.7726 26.59C81.8634 26.9578 81.8803 27.34 81.8224 27.7143C81.7099 28.3182 81.3874 28.8627 80.9119 29.2516C80.3287 29.7238 79.6496 30.0633 78.9219 30.2466C77.9833 30.5027 77.0142 30.6299 76.0413 30.6247C74.871 30.6302 73.7035 30.5101 72.5588 30.2665C71.7606 30.102 70.9732 29.8893 70.2007 29.6297C69.4735 29.3861 68.7622 29.0969 68.0713 28.764C67.4375 28.4613 66.8242 28.1172 66.2355 27.7341C65.708 27.3936 65.2088 27.011 64.743 26.59L64.5489 26.4108L64.3648 26.2268C64.3051 26.1671 64.2455 26.1073 64.1908 26.0427L64.0266 25.8635C63.9669 25.7939 63.9122 25.7292 63.8476 25.6646L63.6634 25.4706L63.4693 25.2765L63.2704 25.0875C62.8689 24.7273 62.4434 24.3948 61.9967 24.0925C61.5176 23.7689 61.0192 23.4748 60.5042 23.2119C59.9656 22.9368 59.4125 22.6911 58.8475 22.4756C58.2562 22.2513 57.6534 22.0586 57.0416 21.8984L56.7331 21.8188C55.511 21.4958 54.2592 21.2991 52.9969 21.2318C51.8664 21.1712 50.7327 21.243 49.6188 21.4457C48.6628 21.6087 47.7412 21.9316 46.8925 22.4009C46.1705 22.7891 45.5747 23.3762 45.176 24.0925L45.0915 24.2616C44.9179 24.593 44.8083 24.9543 44.7681 25.3263C44.7293 25.7083 44.7594 26.0943 44.8575 26.4656C44.9677 26.8799 45.1352 27.2767 45.355 27.6446C45.6044 28.0721 45.898 28.4724 46.2308 28.8387L46.4249 29.0476L46.6338 29.2565L46.8476 29.4606L47.0764 29.6695L47.2856 29.8535L47.4845 30.0426C47.5492 30.1073 47.6088 30.1719 47.6735 30.2316L47.8525 30.4307C48.1928 30.8016 48.4915 31.2086 48.7431 31.6446C48.9759 32.0497 49.1565 32.4827 49.2804 32.9332C49.3958 33.3677 49.4429 33.8175 49.4199 34.2665C49.3933 34.7295 49.2906 35.185 49.1162 35.6147C48.6838 36.5993 47.9753 37.4374 47.0764 38.0276C45.9879 38.7509 44.7752 39.267 43.4994 39.5499C41.998 39.8953 40.4556 40.0276 38.9173 39.943C37.2393 39.8577 35.5809 39.5448 33.9872 39.0127C33.3204 38.7885 32.6687 38.5209 32.0368 38.2117C31.4574 37.9217 30.9005 37.5891 30.3703 37.2166C29.8906 36.8851 29.4379 36.5158 29.017 36.1122C28.6481 35.7449 28.315 35.3435 28.022 34.9132C27.7692 34.5504 27.559 34.1598 27.3953 33.749C27.2394 33.3753 27.1356 32.9818 27.0867 32.5799C27.032 32.1954 27.032 31.8052 27.0867 31.4207C27.1513 31.0329 27.2702 30.656 27.44 30.3014C27.7237 29.7145 28.1151 29.1862 28.5941 28.7441C29.1033 28.2694 29.6759 27.8676 30.2955 27.5501C30.9665 27.2026 31.6717 26.9259 32.4 26.7243C33.1836 26.5049 33.984 26.3501 34.793 26.2615C35.5432 26.1824 36.2866 26.0478 37.017 25.8587C37.6598 25.695 38.286 25.4717 38.8875 25.192C39.4021 24.9544 39.8852 24.6535 40.3253 24.2964C40.7023 23.9919 41.0222 23.623 41.2705 23.2069L41.365 23.0477C41.5471 22.7304 41.6718 22.3834 41.7333 22.0228C41.7856 21.6822 41.7755 21.335 41.7034 20.998C41.6232 20.6492 41.4926 20.314 41.3155 20.003C41.1159 19.6582 40.8771 19.3376 40.604 19.0477C40.2987 18.7241 39.9658 18.4277 39.6089 18.1621C39.2087 17.8673 38.7882 17.6014 38.3504 17.3662C37.8662 17.1109 37.3679 16.8832 36.8578 16.6845C36.2958 16.4718 35.7228 16.2892 35.1413 16.1374L34.8479 16.0577C34.1459 15.874 33.433 15.7345 32.7136 15.6399C31.996 15.5433 31.2733 15.4885 30.5494 15.4756C29.8369 15.4662 29.1245 15.4943 28.415 15.5602C27.7308 15.6313 27.0515 15.7427 26.3803 15.8936C25.7248 16.0428 25.0599 16.1474 24.3903 16.207C23.6777 16.2747 22.9616 16.2997 22.246 16.2817C21.5019 16.268 20.7592 16.2098 20.0221 16.1075C19.279 16.0076 18.5431 15.8613 17.8183 15.6696C17.2386 15.515 16.6686 15.3257 16.1117 15.1025C15.6257 14.9097 15.1549 14.6803 14.7037 14.416C14.3172 14.1937 13.9524 13.9355 13.6142 13.6448C13.3283 13.4007 13.0742 13.1215 12.858 12.8139C12.6645 12.5323 12.5214 12.2193 12.4351 11.8886C12.3679 11.5838 12.3679 11.268 12.4351 10.9632C12.508 10.6429 12.6471 10.3413 12.8432 10.0776C13.0779 9.76431 13.3578 9.4877 13.674 9.25681C14.3004 8.81901 14.9923 8.48318 15.7238 8.26179C16.5773 7.98011 17.4575 7.78677 18.3505 7.68473C19.3257 7.56487 20.309 7.52327 21.2908 7.56035C22.3086 7.59664 23.3217 7.71474 24.3206 7.91356C24.9517 8.04265 25.5746 8.20878 26.1862 8.41107C26.7306 8.58339 27.2626 8.79284 27.7783 9.03793C28.2284 9.24941 28.6594 9.49908 29.0668 9.78419C29.4195 10.0268 29.7432 10.3089 30.0319 10.6249L30.1515 10.7593L30.2559 10.8936L30.3553 11.0329L30.4449 11.1723C30.4748 11.222 30.5094 11.2717 30.5443 11.3214L30.6538 11.4707L30.7682 11.62L30.8977 11.7692C31.1679 12.0645 31.4659 12.3327 31.788 12.5702C32.1587 12.8461 32.5496 13.0938 32.9572 13.3114C33.4161 13.5546 33.8897 13.7689 34.3752 13.9532C34.9143 14.1569 35.464 14.3313 36.0219 14.4756L36.3054 14.5502C37.4736 14.8522 38.6681 15.0405 39.8725 15.1125C40.9656 15.179 42.0627 15.1323 43.1461 14.9732C44.0356 14.8513 44.9013 14.5946 45.7134 14.212C46.3262 13.9353 46.8449 13.4858 47.2059 12.9185L47.2756 12.7991C47.413 12.5648 47.4979 12.3033 47.5243 12.0329C47.5433 11.7649 47.5078 11.4958 47.4199 11.2419C47.3242 10.9583 47.1848 10.6914 47.0069 10.4508C46.801 10.1681 46.5658 9.90809 46.3054 9.67476L46.1511 9.54042L45.992 9.41106L45.8229 9.27673L45.6487 9.14737L45.4894 9.02797L45.3402 8.91356L45.201 8.79416L45.0667 8.67476C44.826 8.46139 44.6106 8.22091 44.4249 7.95826C44.2698 7.73973 44.1506 7.49793 44.0717 7.24188C44.0061 7.01754 43.989 6.78182 44.0219 6.5504C44.063 6.31622 44.1547 6.09379 44.2906 5.89864C44.6641 5.42332 45.1666 5.06573 45.7381 4.86876C46.4812 4.59814 47.258 4.43075 48.0466 4.37126C48.9949 4.28443 49.9491 4.28443 50.8973 4.37126C51.9479 4.47242 52.9881 4.66221 54.0068 4.93848C54.4545 5.05789 54.8874 5.1971 55.3003 5.34635C55.7132 5.4956 56.1013 5.65481 56.4695 5.84386C56.8377 6.03291 57.1809 6.19713 57.4993 6.38618C57.8005 6.56428 58.0898 6.76203 58.365 6.97819C58.5933 7.15403 58.8078 7.34704 59.0068 7.55537C59.1822 7.73888 59.3371 7.94068 59.4694 8.15734C59.586 8.34413 59.675 8.5469 59.7332 8.7593C59.7842 8.95573 59.7959 9.16026 59.7679 9.36126C59.7225 9.68196 59.5822 9.98172 59.3649 10.2219C59.1077 10.506 58.7966 10.7361 58.4496 10.8986C58.019 11.1155 57.5648 11.2824 57.0962 11.3961C56.5333 11.5233 55.961 11.6048 55.3849 11.6399C54.8316 11.6758 54.2814 11.7489 53.7381 11.8588C53.2648 11.9558 52.8018 12.0975 52.3551 12.2817C51.9734 12.4328 51.6149 12.6371 51.2904 12.8886C51.0128 13.1036 50.7839 13.3748 50.6187 13.6846L50.5492 13.8139C50.4182 14.0618 50.3417 14.335 50.3253 14.615C50.3135 14.9054 50.3557 15.1956 50.4496 15.4707C50.5614 15.7821 50.7154 16.0767 50.9073 16.3463C51.1329 16.6644 51.3913 16.9579 51.6783 17.2219M92.5038 26.7491L60.1359 3.04295C59.499 2.59066 58.8112 2.21494 58.0864 1.92357C57.2803 1.5883 56.4484 1.31871 55.5989 1.11755C54.715 0.907603 53.8172 0.761351 52.9124 0.679799C52.0436 0.600223 51.1693 0.600223 50.3005 0.679799L7.35555 4.82905C6.27865 4.92452 5.21483 5.13296 4.18152 5.45093C3.35417 5.69323 2.57016 6.06425 1.8582 6.5504C1.31514 6.90417 0.891956 7.41408 0.644318 8.01304C0.546352 8.28993 0.51188 8.58538 0.543748 8.87736C0.575615 9.16934 0.67282 9.45029 0.828211 9.69953L21.226 45.4803C21.9595 46.7142 22.9548 47.7722 24.1415 48.5797C25.4785 49.5062 26.9548 50.2132 28.5146 50.6742C30.1837 51.1788 31.9153 51.4468 33.6588 51.4703C35.4011 51.5044 37.1383 51.2676 38.808 50.7687L93.1954 34.2017C93.9995 33.9994 94.722 33.5548 95.2651 32.9282C95.4691 32.6686 95.6183 32.3702 95.7038 32.0512C95.7893 31.7323 95.8094 31.3994 95.7626 31.0725C95.6366 30.2891 95.3091 29.5519 94.8122 28.9332C94.1664 28.0983 93.4003 27.3639 92.5387 26.7541" fill="#6B1FFF"/>
</g>
<defs>
<clipPath id="clip0_489_907">
<rect width="420" height="50.8501" fill="white" transform="translate(0.5 0.575195)"/>
</clipPath>
</defs>
</svg>
