<svg width="296" height="50" viewBox="0 0 296 50" fill="none" xmlns="http://www.w3.org/2000/svg">
<g clip-path="url(#clip0_336_4503)">
<path d="M47.5131 47.9239C46.2302 49.0459 44.6326 49.7522 42.9344 49.9481C41.2361 50.144 39.518 49.8201 38.0102 49.0199C36.5024 48.2197 35.2767 46.9814 34.4973 45.4706C33.7178 43.9598 33.4218 42.2487 33.6488 40.5662C33.8358 39.2772 33.7207 37.9628 33.3124 36.7251C32.9042 35.4875 32.2137 34.3601 31.2949 33.4306L31.0948 33.232C30.3184 32.4605 29.3964 31.8484 28.3816 31.4308C27.3669 31.0133 26.2792 30.7983 25.1807 30.7983C24.0822 30.7983 22.9945 31.0133 21.9797 31.4308C20.9649 31.8484 20.043 32.4605 19.2666 33.232L19.0665 33.4306C18.1468 34.366 17.4562 35.4988 17.048 36.7416C16.6398 37.9843 16.5251 39.3036 16.7126 40.5974C16.9396 42.3243 16.6158 44.0784 15.7868 45.6131C14.9577 47.1479 13.6651 48.3861 12.0906 49.1538C10.5161 49.9215 8.73892 50.18 7.00879 49.893C5.27866 49.606 3.68261 48.788 2.44497 47.5539C1.20732 46.3198 0.390305 44.7316 0.108785 43.0126C-0.172736 41.2937 0.0953903 39.5303 0.875452 37.9705C1.65551 36.4107 2.9083 35.1327 4.45772 34.3163C6.00715 33.4999 7.7753 33.1861 9.51366 33.4189C10.812 33.6049 12.1361 33.4908 13.3827 33.0855C14.6293 32.6801 15.7649 31.9945 16.7008 31.082L16.897 30.8833C17.6742 30.1121 18.2907 29.1965 18.7114 28.1887C19.132 27.1808 19.3485 26.1006 19.3485 25.0097C19.3485 23.9187 19.132 22.8385 18.7114 21.8307C18.2907 20.8229 17.6742 19.9072 16.897 19.136L16.7008 18.9373C15.7591 18.0238 14.6181 17.3378 13.3662 16.9326C12.1144 16.5273 10.7854 16.4136 9.48227 16.6004C7.74265 16.8251 5.97582 16.5033 4.42992 15.6799C2.88403 14.8565 1.63675 13.5731 0.863288 12.0098C0.0898285 10.4465 -0.170947 8.68195 0.117573 6.96396C0.406092 5.24597 1.22941 3.66085 2.4719 2.43128C3.71439 1.20171 5.31363 0.389447 7.04497 0.108594C8.7763 -0.172258 10.5527 0.0924363 12.1248 0.865436C13.6969 1.63844 14.9855 2.8809 15.8098 4.41838C16.6341 5.95586 16.9525 7.7111 16.7204 9.43751C16.5337 10.7265 16.649 12.0409 17.0572 13.2785C17.4655 14.5161 18.1557 15.6435 19.0743 16.5731L19.2744 16.7718C20.0508 17.5433 20.9727 18.1553 21.9875 18.5729C23.0023 18.9904 24.09 19.2054 25.1885 19.2054C26.287 19.2054 27.3747 18.9904 28.3895 18.5729C29.4043 18.1553 30.3262 17.5433 31.1026 16.7718L31.3027 16.5731C32.2224 15.6377 32.913 14.5049 33.3212 13.2622C33.7293 12.0194 33.8441 10.7001 33.6566 9.40632C33.4319 7.68003 33.7574 5.92723 34.5875 4.39404C35.4175 2.86084 36.7104 1.62428 38.2846 0.857971C39.8588 0.0916603 41.6352 -0.165929 43.3643 0.121432C45.0935 0.408792 46.6886 1.22665 47.9256 2.46014C49.1626 3.69363 49.9794 5.28082 50.2613 6.99881C50.5432 8.7168 50.2761 10.4793 49.4974 12.0389C48.7188 13.5984 47.4676 14.8766 45.9198 15.694C44.3719 16.5115 42.6051 16.8271 40.8673 16.5965C39.569 16.4105 38.2449 16.5246 36.9983 16.9299C35.7516 17.3353 34.6161 18.021 33.6801 18.9335L33.484 19.1321C32.7068 19.9033 32.0902 20.819 31.6696 21.8268C31.2489 22.8346 31.0324 23.9148 31.0324 25.0058C31.0324 26.0967 31.2489 27.1769 31.6696 28.1848C32.0902 29.1926 32.7068 30.1082 33.484 30.8794L33.6801 31.0781C34.6224 31.9909 35.7635 32.6764 37.0151 33.0816C38.2668 33.4868 39.5955 33.6009 40.8987 33.415C42.6816 33.1863 44.4914 33.5318 46.0617 34.4007C47.6321 35.2696 48.88 36.616 49.6219 38.2418C50.3638 39.8676 50.5604 41.6869 50.1829 43.4319C49.8054 45.177 48.8737 46.7556 47.5249 47.9356L47.5131 47.9239Z" fill="#6B1FFF"/>
<path d="M257.655 13.4845V21.1615H292.136V29.0294H257.655V36.5155H296V44.1926H246.059V5.80743H296V13.4845H257.655Z" fill="#6B1FFF"/>
<path d="M145.489 5.81134H129.84L108.224 44.1926H119.824L125.572 33.9877H149.758L155.509 44.1926H167.106L145.489 5.81134ZM129.797 26.4548L137.643 12.5146L145.489 26.4548H129.797Z" fill="#6B1FFF"/>
<path d="M74.5553 13.4845V21.1615H109.032V29.0294H74.5553V44.1926H62.9546V5.80743H112.896V13.4845H74.5553Z" fill="#6B1FFF"/>
<path d="M240.26 5.80743V44.1926H228.66V12.0199L212.457 44.1926H199.515L183.312 12.0199V44.1926H171.711V5.80743H190.621L205.984 36.3169L221.351 5.80743H240.26Z" fill="#6B1FFF"/>
</g>
<defs>
<clipPath id="clip0_336_4503">
<rect width="296" height="50" fill="white"/>
</clipPath>
</defs>
</svg>
