<svg width="214" height="146" viewBox="0 0 214 146" fill="none" xmlns="http://www.w3.org/2000/svg">
<path d="M107.706 24.6964C108.225 24.6844 108.742 24.6275 109.251 24.5264C109.787 24.4225 110.314 24.2768 110.827 24.0906C111.362 23.8942 111.882 23.6573 112.382 23.3821C112.898 23.098 113.39 22.7734 113.855 22.4114L114.085 22.2378C114.615 21.8264 115.104 21.3649 115.545 20.8596C115.95 20.386 116.306 19.872 116.607 19.3256C116.891 18.8141 117.117 18.2722 117.28 17.7101C117.434 17.1845 117.522 16.6419 117.542 16.0946C117.559 15.5826 117.643 15.0751 117.794 14.5854C117.95 14.0684 118.167 13.5714 118.438 13.1046C118.73 12.5984 119.073 12.1236 119.462 11.6875C119.886 11.2161 120.352 10.7844 120.854 10.3979C121.302 10.0527 121.776 9.74127 122.271 9.46615C122.759 9.19358 123.267 8.95678 123.79 8.7576C124.307 8.5577 124.837 8.39318 125.377 8.26516C125.908 8.13904 126.448 8.05025 126.992 7.99945C127.566 7.94527 128.144 7.93698 128.72 7.97465C129.282 8.00864 129.839 8.09402 130.385 8.22973C130.915 8.36051 131.43 8.54572 131.922 8.7824C132.407 9.01655 132.863 9.30795 133.279 9.65037C133.913 10.1674 134.416 10.8264 134.749 11.5741C135.07 12.3111 135.214 13.113 135.17 13.9158C135.117 14.789 134.885 15.6417 134.487 16.4206C134.031 17.3156 133.421 18.1228 132.684 18.8048C132.16 19.2991 131.588 19.7394 130.977 20.1192C130.374 20.4987 129.739 20.8225 129.078 21.0864C128.429 21.3451 127.76 21.5489 127.077 21.6957C126.417 21.8355 125.746 21.9173 125.072 21.9402H124.771H124.474H124.18L123.886 21.9189L123.571 21.9012C123.464 21.9012 123.362 21.9012 123.255 21.9012H122.94H122.625C121.441 21.9429 120.27 22.1663 119.154 22.5637C118.595 22.7567 118.053 22.9936 117.532 23.2722C117.009 23.5553 116.51 23.8812 116.04 24.2465L115.807 24.4272C114.888 25.1332 114.095 25.9897 113.462 26.9602C112.883 27.8488 112.475 28.8376 112.258 29.8759C112.05 30.8699 112.059 31.8969 112.283 32.8873C112.524 33.9159 113.01 34.8712 113.699 35.6719L113.869 35.8809C114.227 36.3017 114.634 36.6787 115.081 37.0039C115.543 37.3382 116.039 37.6221 116.561 37.8507C117.108 38.0874 117.676 38.2701 118.258 38.3962C118.873 38.5319 119.499 38.6114 120.128 38.6336H120.482H120.836H121.19L121.545 38.6088L121.863 38.5875H122.186H122.504H122.823C123.456 38.609 124.086 38.6897 124.704 38.8285C125.963 39.102 127.156 39.6183 128.217 40.3483C128.77 40.7297 129.282 41.1679 129.744 41.6556C130.709 42.67 131.436 43.8878 131.869 45.2196C132.3 46.5489 132.439 47.9554 132.276 49.3433C132.109 50.7948 131.636 52.1942 130.888 53.4494C129.713 55.4049 127.968 56.954 125.887 57.8885C125.266 58.1648 124.621 58.3841 123.96 58.5439C123.312 58.6988 122.652 58.7948 121.987 58.8308C121.335 58.8658 120.68 58.8421 120.032 58.76C119.44 58.687 118.856 58.5614 118.286 58.3844C117.163 58.0448 116.109 57.506 115.176 56.7937C114.713 56.4374 114.284 56.0389 113.894 55.6034C113.035 54.6462 112.379 53.525 111.965 52.3072C111.551 51.0894 111.388 49.8004 111.486 48.5179C111.544 47.7036 111.701 46.8994 111.953 46.123C112.184 45.4079 112.34 44.6705 112.417 43.9229C112.488 43.2226 112.478 42.5164 112.385 41.8185C112.297 41.1595 112.126 40.5143 111.875 39.8984C111.629 39.3002 111.3 38.7397 110.898 38.2333L110.728 38.0207C110.065 37.1861 109.216 36.5187 108.248 36.0722C107.779 35.8553 107.287 35.6891 106.782 35.5762C106.271 35.4625 105.75 35.3984 105.227 35.3849C104.691 35.3712 104.155 35.4068 103.626 35.4912C103.079 35.5789 102.54 35.7128 102.015 35.8915C101.47 36.0845 100.941 36.3214 100.435 36.6001C99.9048 36.891 99.398 37.2227 98.9191 37.592L98.6818 37.7798C98.1199 38.2164 97.6015 38.7064 97.134 39.243C96.6723 39.7728 96.2608 40.3445 95.905 40.9506C95.1936 42.1586 94.7132 43.4885 94.4882 44.8724C94.3804 45.5416 94.2084 46.1988 93.9746 46.8351C93.7272 47.5054 93.419 48.1517 93.0538 48.7659C92.2867 50.0657 91.2823 51.2098 90.0928 52.1386C89.5912 52.5299 89.0567 52.8772 88.4954 53.1766C87.9758 53.4543 87.4316 53.6832 86.8697 53.8603C86.3498 54.0234 85.8145 54.1327 85.2723 54.1863C84.7668 54.239 84.2569 54.2331 83.7528 54.1686C83.2403 54.1076 82.7385 53.9765 82.2617 53.7789C81.7998 53.5897 81.3679 53.3343 80.9795 53.0207C80.5843 52.7065 80.2381 52.3352 79.9524 51.9189C79.6479 51.4813 79.4037 51.0046 79.2263 50.5018C78.931 49.6411 78.7988 48.7327 78.8367 47.8235C78.875 46.8669 79.0504 45.9208 79.3574 45.0141C80.0131 43.0881 81.1478 41.3606 82.6548 39.994C83.1462 39.5447 83.676 39.1393 84.2381 38.7824C84.7551 38.4515 85.3017 38.1693 85.8708 37.9392C86.4013 37.7245 86.9519 37.5631 87.5143 37.4574C88.0417 37.3571 88.5786 37.3156 89.1152 37.3334H89.3525L89.5863 37.3547L89.8165 37.3866L90.0467 37.4255L90.2947 37.468L90.5497 37.4999L90.8047 37.5247H91.0632C91.5655 37.5423 92.0683 37.5127 92.565 37.4362C93.0875 37.3535 93.6019 37.2255 94.1022 37.0535C94.6289 36.8735 95.1395 36.6495 95.6287 36.384C96.1409 36.1077 96.6291 35.7889 97.088 35.431L97.3253 35.2503C98.2473 34.5371 99.0517 33.6836 99.7089 32.7208C100.305 31.857 100.752 30.8988 101.03 29.8866C101.28 28.9913 101.341 28.0541 101.211 27.1338C101.088 26.2893 100.746 25.4916 100.219 24.8204L100.091 24.661C99.8371 24.3397 99.5377 24.0569 99.2024 23.8214C98.8746 23.5839 98.5175 23.3898 98.1399 23.2439C97.7429 23.093 97.3308 22.9849 96.9109 22.9215C96.4655 22.8553 96.0149 22.8304 95.5649 22.8471H95.3206L95.0691 22.8648L94.8212 22.8932L94.5662 22.9286L94.3395 22.9605L94.1128 22.9853L93.8896 23.003H93.6665C93.2482 23.0187 92.8294 22.9926 92.4162 22.9251C92.0334 22.8651 91.659 22.7605 91.3005 22.6133C90.9641 22.4731 90.6474 22.2897 90.3584 22.0677C90.075 21.8481 89.8256 21.5878 89.6181 21.2954C89.1976 20.6838 88.9604 19.9647 88.9346 19.2229C88.9118 18.4242 89.0541 17.6294 89.3525 16.8882C89.6837 16.0507 90.1438 15.2701 90.7161 14.5748C91.6436 13.4534 92.7804 12.5232 94.0632 11.8362C94.4423 11.6344 94.8339 11.4569 95.2355 11.3048C95.6207 11.1615 96.0146 11.0432 96.415 10.9506C96.7981 10.8573 97.1876 10.7921 97.5803 10.7557C97.9274 10.7211 98.2767 10.7128 98.6251 10.7309C98.9566 10.7491 99.286 10.7953 99.6098 10.8691C99.919 10.9389 100.22 11.0398 100.509 11.1702C100.791 11.2964 101.056 11.4558 101.299 11.6449C101.673 11.9358 101.987 12.2968 102.224 12.7078C102.457 13.1088 102.615 13.5496 102.688 14.008C102.762 14.4988 102.762 14.998 102.688 15.4888C102.606 16.033 102.453 16.5641 102.234 17.0689C102.027 17.5547 101.873 18.0621 101.777 18.5816C101.685 19.0659 101.656 19.5602 101.692 20.0519C101.726 20.5229 101.829 20.9863 102.001 21.4265C102.169 21.8673 102.408 22.2778 102.709 22.6416L102.843 22.7975C103.118 23.1205 103.434 23.4064 103.782 23.6478C104.141 23.8954 104.529 24.0988 104.937 24.2536C105.367 24.4189 105.813 24.5376 106.268 24.6079C106.752 24.6831 107.242 24.7151 107.731 24.7035M136.3 0.84664L93.2025 5.98008C92.3667 6.08831 91.5508 6.3162 90.7799 6.65675C89.1853 7.3549 87.7795 8.42228 86.6784 9.77083C86.1547 10.4114 85.7319 11.1282 85.4246 11.8965L69.6172 52.3511C69.1832 53.4415 68.9192 54.5922 68.8345 55.7628C68.7588 56.7928 68.879 57.8279 69.1887 58.8131C69.4672 59.7049 69.9667 60.5117 70.6408 61.1584C71.335 61.8077 72.2044 62.2389 73.1414 62.3984L130.321 72.7184C131.998 73.0283 133.722 72.9727 135.376 72.5554C136.955 72.159 138.429 71.4243 139.697 70.4022C140.965 69.3801 141.995 68.095 142.718 66.6355C143.455 65.1281 143.854 63.4775 143.887 61.7996L145.179 6.30602C145.199 5.40901 144.953 4.52623 144.471 3.76941C143.978 3.00833 143.31 2.37657 142.523 1.92717C141.646 1.42357 140.687 1.08046 139.69 0.913954C138.561 0.722687 137.411 0.697625 136.275 0.839559" fill="#6B1FFF"/>
<path fill-rule="evenodd" clip-rule="evenodd" d="M61.5252 90.62H75.8627L95.6652 126.047H85.0396L79.7729 116.627H57.615L52.3482 126.047H41.7227L61.5252 90.62ZM68.6939 96.8021L61.5039 109.669H75.8839L68.6939 96.8021ZM178.622 104.794V97.7085H213.75V90.623H167.996V126.051H213.75V118.965H178.622V112.057H210.208V104.794H178.622ZM10.8756 97.7077V104.793H42.462V112.056H10.8756V126.05H0.25V90.6222H46.0038V97.7077H10.8756ZM162.683 126.051V90.623H145.36L131.284 118.777L117.209 90.623H99.8857V126.051H110.511V96.3552L125.355 126.051H137.213L152.057 96.3552V126.051H162.683ZM7.82605 145.001V140.877H2.45305V145.001H0.25V135.138H2.45305V138.946H7.82605V135.138H10.0326V144.987L7.82605 145.001ZM19.1008 141.068V145.001L21.3038 144.987V141.054L25.4691 135.138H23.0854L20.2483 139.276L17.4149 135.138H14.9355L19.1008 141.068ZM30.3643 145.001V135.138H35.1493C37.9073 135.138 39.2862 136.218 39.2862 138.379C39.2862 139.485 38.932 140.303 38.2237 140.842C37.5153 141.38 36.435 141.649 34.9828 141.649H32.5425V144.987L30.3643 145.001ZM34.9687 139.938C35.5323 139.983 36.0957 139.85 36.5802 139.559C36.7552 139.419 36.8931 139.238 36.982 139.033C37.0709 138.827 37.1081 138.603 37.0903 138.379C37.1091 138.162 37.0737 137.944 36.9871 137.744C36.9005 137.545 36.7656 137.37 36.5944 137.235C36.1094 136.96 35.5529 136.836 34.997 136.881H32.5425V139.942L34.9687 139.938ZM44.7744 135.138V145.001L53.0482 145.008L53.3245 143.201H46.981V140.842H52.7295V139.035H46.981V136.944H53.0199V135.138H44.7744ZM66.1073 145.001L63.9539 141.32H61.0743V145.001H58.9492V135.138H63.7874C66.5359 135.138 67.9101 136.163 67.9101 138.213C67.9311 138.8 67.769 139.38 67.4461 139.871C67.0875 140.349 66.5941 140.709 66.0294 140.905L68.5087 144.987L66.1073 145.001ZM63.628 139.623C64.1855 139.658 64.7416 139.535 65.2325 139.269C65.405 139.153 65.5438 138.994 65.6347 138.807C65.7256 138.62 65.7652 138.413 65.7496 138.206C65.7705 138.001 65.7362 137.795 65.6502 137.608C65.5642 137.421 65.4298 137.26 65.2608 137.143C64.7651 136.892 64.2102 136.782 63.6563 136.824H61.0779V139.598L63.628 139.623ZM90.9551 143.117C91.2271 142.651 91.3955 142.131 91.4491 141.593L89.2178 141.618C89.0992 142.188 88.7623 142.689 88.2792 143.013C87.692 143.345 87.0223 143.503 86.3489 143.467C85.9133 143.492 85.4773 143.425 85.0687 143.272C84.6601 143.119 84.2879 142.883 83.9758 142.578C83.4191 141.871 83.1164 140.997 83.1164 140.098C83.1164 139.198 83.4191 138.325 83.9758 137.618C84.2817 137.308 84.6498 137.067 85.0558 136.91C85.4618 136.753 85.8965 136.684 86.3312 136.707C86.9504 136.677 87.5654 136.825 88.1021 137.136C88.586 137.482 88.9391 137.981 89.1044 138.553L91.2968 138.291C90.7065 136.038 89.0466 134.911 86.317 134.911C85.304 134.887 84.3006 135.112 83.3949 135.567C82.5978 135.974 81.9386 136.607 81.5 137.388C81.0496 138.213 80.8237 139.143 80.8448 140.084C80.8185 141.056 81.0508 142.018 81.5177 142.872C81.9638 143.643 82.6331 144.26 83.4374 144.643C84.3429 145.064 85.3329 145.271 86.3312 145.249C87.7975 145.249 88.9781 144.932 89.873 144.299C90.3142 143.988 90.6832 143.584 90.9551 143.117ZM107.972 140.077C107.993 141.03 107.757 141.971 107.289 142.801C106.824 143.585 106.138 144.214 105.316 144.608C104.362 145.026 103.333 145.244 102.292 145.249C101.251 145.254 100.22 145.045 99.2629 144.636C98.4417 144.253 97.7509 143.637 97.2759 142.865C96.8158 142.021 96.5724 141.077 96.5675 140.116C96.5625 139.155 96.7962 138.208 97.2476 137.359C97.7119 136.575 98.3985 135.946 99.2204 135.552C100.174 135.134 101.203 134.916 102.244 134.911C103.285 134.906 104.316 135.115 105.273 135.524C106.096 135.906 106.787 136.522 107.26 137.296C107.753 138.138 107.999 139.101 107.972 140.077ZM105.681 140.077C105.708 139.624 105.643 139.171 105.489 138.744C105.334 138.318 105.095 137.927 104.785 137.597C104.071 137.024 103.183 136.711 102.268 136.711C101.353 136.711 100.465 137.024 99.7517 137.597C99.1727 138.293 98.8557 139.171 98.8557 140.077C98.8557 140.983 99.1727 141.86 99.7517 142.557C100.465 143.13 101.353 143.442 102.268 143.442C103.183 143.442 104.071 143.13 104.785 142.557C105.095 142.226 105.335 141.836 105.489 141.409C105.643 140.983 105.708 140.529 105.681 140.077ZM115.693 138.117L121.388 145.001L123.4 144.987V135.138H121.275V142.021L115.579 135.138H113.567V145.001H115.693V138.117ZM137.422 145.001L131.731 138.117V145.001H129.605V135.138H131.617L137.313 142.021V135.138H139.438V144.987L137.422 145.001ZM145.657 135.138V145.001L153.949 145.008L154.225 143.201H147.882V140.842H153.63V139.035H147.882V136.944H153.903V135.138H145.657ZM169.979 141.593C169.926 142.13 169.757 142.65 169.485 143.117C169.213 143.584 168.844 143.987 168.403 144.299C167.504 144.932 166.323 145.249 164.861 145.249C163.862 145.271 162.871 145.064 161.964 144.643C161.161 144.26 160.493 143.643 160.048 142.872C159.581 142.018 159.349 141.056 159.375 140.083C159.355 139.143 159.579 138.214 160.027 137.387C160.468 136.608 161.128 135.974 161.925 135.566C162.831 135.112 163.834 134.886 164.847 134.911C167.579 134.911 169.239 136.038 169.827 138.291L167.635 138.553C167.469 137.981 167.116 137.482 166.632 137.136C166.096 136.825 165.481 136.676 164.861 136.707C164.432 136.685 164.003 136.754 163.601 136.908C163.2 137.063 162.835 137.3 162.531 137.604C161.974 138.31 161.671 139.184 161.671 140.083C161.671 140.983 161.974 141.857 162.531 142.563C162.843 142.868 163.215 143.105 163.624 143.258C164.032 143.411 164.468 143.477 164.904 143.453C165.577 143.488 166.247 143.331 166.834 142.999C167.316 142.673 167.653 142.173 167.773 141.603L169.979 141.593ZM178.116 136.987V145.001L180.315 144.987V136.973H184.172V135.138H174.255V136.987H178.116ZM189.368 145.001V135.138H197.614V136.944H191.592V139.035H197.316V140.842H191.564V143.201H197.908L197.631 145.008L189.368 145.001ZM203.542 135.138V145.001L207.721 144.987C209.646 144.987 211.129 144.559 212.17 143.704C213.211 142.849 213.732 141.635 213.732 140.062C213.73 138.466 213.236 137.246 212.251 136.402C211.267 135.559 209.83 135.138 207.941 135.138H203.542ZM210.555 142.379C209.956 142.903 209.035 143.166 207.831 143.166H205.734V136.987H208.026C210.323 136.989 211.472 138.014 211.472 140.062C211.472 141.082 211.153 141.855 210.555 142.379Z" fill="#6B1FFF"/>
</svg>
