<svg id="레이어_1" data-name="레이어 1" xmlns="http://www.w3.org/2000/svg" viewBox="0 0 512 512"><defs><style>.cls-1{fill:#fff;}.cls-2{isolation:isolate;}.cls-3{fill:#6b1fff;}</style></defs><rect class="cls-1" width="512" height="512" rx="102.4"/><g class="cls-2"><path class="cls-3" d="M243.61,187.68a48.18,48.18,0,0,0,7.81-.85,53.85,53.85,0,0,0,8-2.21,57.17,57.17,0,0,0,7.85-3.56,56.24,56.24,0,0,0,7.45-4.9l1.17-.89a50.93,50.93,0,0,0,7.36-7,45.33,45.33,0,0,0,5.44-7.75,38.87,38.87,0,0,0,3.41-8.15,33.47,33.47,0,0,0,1.32-8.18,29.44,29.44,0,0,1,1.28-7.61,36.06,36.06,0,0,1,3.26-7.5A43.16,43.16,0,0,1,303.1,122a52,52,0,0,1,7-6.52,58.4,58.4,0,0,1,7.15-4.71,60.16,60.16,0,0,1,7.68-3.59,61.2,61.2,0,0,1,8-2.49,59.44,59.44,0,0,1,8.17-1.34,54.29,54.29,0,0,1,8.73-.13,48.07,48.07,0,0,1,8.4,1.29,39.85,39.85,0,0,1,7.79,2.8,33.8,33.8,0,0,1,6.85,4.38,26.44,26.44,0,0,1,7.43,9.73,25.89,25.89,0,0,1,2.12,11.82A32,32,0,0,1,379,145.88a42.94,42.94,0,0,1-9.11,12,56.35,56.35,0,0,1-8.62,6.66,61,61,0,0,1-19.72,7.95,58.05,58.05,0,0,1-10.13,1.25l-1.52,0c-.5,0-1,0-1.5,0l-1.49-.05c-.5,0-1-.06-1.48-.09s-1.06-.08-1.6-.1-1.06-.05-1.59-.06-1.07,0-1.6,0-1.06,0-1.59,0a58,58,0,0,0-8.9,1,59,59,0,0,0-8.64,2.34,58,58,0,0,0-8.19,3.64,56.15,56.15,0,0,0-7.55,4.92l-1.17.93a51.71,51.71,0,0,0-11.85,12.78,43.12,43.12,0,0,0-6.09,14.73,35.86,35.86,0,0,0,.12,15.23,33.51,33.51,0,0,0,7.09,14.07l.87,1.05a35.11,35.11,0,0,0,6.12,5.68,39.39,39.39,0,0,0,7.47,4.26,45.4,45.4,0,0,0,8.59,2.77,53.67,53.67,0,0,0,9.44,1.2l1.74,0c.59,0,1.17,0,1.76,0s1.18,0,1.77-.06,1.19-.07,1.78-.12l1.62-.1q.81,0,1.62-.06c.53,0,1.07,0,1.61,0l1.62,0a54.17,54.17,0,0,1,9.5,1.22,51.31,51.31,0,0,1,9.17,2.95,50.39,50.39,0,0,1,8.59,4.74,49,49,0,0,1,7.71,6.61,47.52,47.52,0,0,1,10.73,18,49.13,49.13,0,0,1,2.06,20.85,52.29,52.29,0,0,1-7,20.74,56.34,56.34,0,0,1-25.27,22.43,56.77,56.77,0,0,1-9.74,3.31,55.76,55.76,0,0,1-10,1.45,55,55,0,0,1-9.87-.35,52.68,52.68,0,0,1-8.84-1.9,50.48,50.48,0,0,1-8.25-3.33,49.85,49.85,0,0,1-7.46-4.71,47.67,47.67,0,0,1-6.47-6,48.69,48.69,0,0,1-7.55-11.26,47.53,47.53,0,0,1-4-12.14,49.62,49.62,0,0,1-.67-12.4,51.41,51.41,0,0,1,2.36-12.11,53.08,53.08,0,0,0,2.34-11.11,45.94,45.94,0,0,0-.15-10.63,38.73,38.73,0,0,0-2.59-9.71,34.92,34.92,0,0,0-4.92-8.41l-.86-1.08a34.2,34.2,0,0,0-5.8-5.74,34.79,34.79,0,0,0-6.74-4.1,37.39,37.39,0,0,0-7.41-2.51,40.91,40.91,0,0,0-7.86-1,44.54,44.54,0,0,0-8.1.54,49,49,0,0,0-8.13,2,53.22,53.22,0,0,0-8,3.51,56.49,56.49,0,0,0-7.66,5l-1.2.94a56.45,56.45,0,0,0-14,16,57.63,57.63,0,0,0-4.5,9.58,56,56,0,0,0-2.64,10.24,52.54,52.54,0,0,1-2.6,9.91,59.78,59.78,0,0,1-4.64,9.75,62.93,62.93,0,0,1-6.59,9.1,61.29,61.29,0,0,1-8.38,7.94,57,57,0,0,1-8.07,5.26,48.37,48.37,0,0,1-8.22,3.44,40.32,40.32,0,0,1-8.08,1.66,33.9,33.9,0,0,1-7.68-.09,29.81,29.81,0,0,1-7.53-2,26.43,26.43,0,0,1-11.68-9.4,30,30,0,0,1-3.66-7.22,36.83,36.83,0,0,1-2-13.53,50,50,0,0,1,2.64-14.19,59.15,59.15,0,0,1,6.59-13.56,60.22,60.22,0,0,1,10.06-11.81,58.27,58.27,0,0,1,8-6.12,50.25,50.25,0,0,1,8.26-4.26,43.56,43.56,0,0,1,8.3-2.44,36.72,36.72,0,0,1,8.09-.61c.4,0,.8,0,1.2.06l1.18.11,1.17.16c.39,0,.78.12,1.16.19l1.26.21c.42.07.85.12,1.28.17s.86.09,1.29.12.87.06,1.31.07A39.06,39.06,0,0,0,167,252a44.62,44.62,0,0,0,7.78-1.92,51.6,51.6,0,0,0,7.71-3.38,53.93,53.93,0,0,0,7.38-4.82L191,241a56.23,56.23,0,0,0,12.06-12.77,47.21,47.21,0,0,0,6.67-14.35,34.07,34.07,0,0,0,.91-13.91,24.71,24.71,0,0,0-5-11.67l-.65-.82a22.21,22.21,0,0,0-4.48-4.24,24.13,24.13,0,0,0-5.45-2.91,29,29,0,0,0-6.22-1.63,36.77,36.77,0,0,0-6.78-.38l-1.25.07c-.42,0-.84.06-1.26.1s-.84.08-1.27.14l-1.28.17c-.38.06-.77.12-1.15.16l-1.14.13-1.13.09-1.12.05a31.88,31.88,0,0,1-6.32-.38,25.35,25.35,0,0,1-5.64-1.59,20.6,20.6,0,0,1-4.77-2.75,18.67,18.67,0,0,1-3.73-3.9,19.46,19.46,0,0,1-3.45-10.47,29,29,0,0,1,2.1-11.79,43.61,43.61,0,0,1,6.9-11.7,56.29,56.29,0,0,1,16.9-13.83,54.77,54.77,0,0,1,5.93-2.69,47.56,47.56,0,0,1,6-1.85,42.68,42.68,0,0,1,5.88-1,36.12,36.12,0,0,1,5.28-.12,30.64,30.64,0,0,1,5,.69,24,24,0,0,1,4.54,1.52,20,20,0,0,1,4,2.4,18.43,18.43,0,0,1,4.68,5.29,19.1,19.1,0,0,1,2.34,6.58,24.11,24.11,0,0,1,0,7.49,33,33,0,0,1-2.28,8,36.71,36.71,0,0,0-2.32,7.65,28.87,28.87,0,0,0-.43,7.43,24.08,24.08,0,0,0,1.55,6.93,22.11,22.11,0,0,0,3.66,6.14l.68.79a24.3,24.3,0,0,0,4.75,4.3,27.93,27.93,0,0,0,5.84,3.06,33,33,0,0,0,6.72,1.79,40.75,40.75,0,0,0,7.39.48M388,67.15l-217.7,26A43.84,43.84,0,0,0,158,96.54a54.66,54.66,0,0,0-11.33,6.66,53.53,53.53,0,0,0-9.4,9.06A41.18,41.18,0,0,0,131,123L51.09,327.41a57.6,57.6,0,0,0-4,17.23,41,41,0,0,0,1.78,15.42,28.07,28.07,0,0,0,7.34,11.85,24.52,24.52,0,0,0,12.63,6.26l289,52.15a60.13,60.13,0,0,0,25.55-.82,57.35,57.35,0,0,0,21.9-10.94,56.47,56.47,0,0,0,15.19-19,58,58,0,0,0,5.92-24.43L433,94.76a22.86,22.86,0,0,0-3.5-12.82,28.55,28.55,0,0,0-9.85-9.3,42.93,42.93,0,0,0-14.35-5.12A59.14,59.14,0,0,0,388,67.15"/></g></svg>