<svg width="123" height="30" viewBox="0 0 123 30" fill="none" xmlns="http://www.w3.org/2000/svg">
<path fill-rule="evenodd" clip-rule="evenodd" d="M15.7273 10.1514C15.9348 10.1466 16.1416 10.1239 16.3452 10.0835C16.5592 10.0425 16.7696 9.9844 16.9743 9.90963C17.1877 9.8315 17.3948 9.73696 17.5936 9.62686C17.7997 9.5135 17.9968 9.38446 18.1832 9.24088L18.2751 9.17019C18.4863 9.00637 18.681 8.82215 18.8562 8.6202C19.0186 8.43154 19.1607 8.22636 19.2803 8.00801C19.3935 7.80422 19.4836 7.58845 19.5489 7.36471C19.6109 7.1546 19.6461 6.93751 19.6536 6.71859C19.6614 6.51427 19.6956 6.31182 19.7554 6.11629C19.8178 5.90994 19.9042 5.71159 20.0127 5.52529C20.1287 5.32299 20.2656 5.13344 20.4213 4.95976C20.5897 4.77096 20.7758 4.59863 20.9769 4.44512C21.1558 4.30704 21.3448 4.18273 21.5425 4.07327C21.7377 3.9648 21.9404 3.87031 22.149 3.7905C22.3554 3.71073 22.5671 3.64509 22.7824 3.594C22.9945 3.54344 23.21 3.508 23.4271 3.48796C23.6565 3.46633 23.8872 3.46301 24.1171 3.47805C24.3408 3.49151 24.5627 3.52558 24.7802 3.57984C24.9921 3.63226 25.1982 3.70617 25.3952 3.80041C25.5887 3.89418 25.7704 4.01044 25.9367 4.1468C26.1891 4.35382 26.3899 4.61664 26.5234 4.91452C26.6512 5.20874 26.7084 5.5288 26.6903 5.84907C26.6693 6.19735 26.5769 6.53759 26.4188 6.84865C26.236 7.20519 25.9925 7.52719 25.6992 7.80018C25.4896 7.99678 25.2614 8.17245 25.0177 8.32471C24.7769 8.4762 24.5227 8.6054 24.2585 8.71069C23.9995 8.81411 23.7323 8.89546 23.4596 8.95387C23.1963 9.00984 22.9285 9.04249 22.6594 9.05143H22.5406H22.4261H22.3073C22.2692 9.05143 22.2296 9.05142 22.1914 9.04294H22.0656H21.9383H21.8125H21.6867C21.4493 9.05074 21.2129 9.07722 20.9797 9.12212C20.7477 9.16623 20.5194 9.22814 20.2969 9.30733C19.8492 9.46495 19.4297 9.6931 19.0541 9.98315L18.9622 10.0553C18.5951 10.3367 18.2786 10.6786 18.0262 11.0662C17.7947 11.4207 17.6312 11.8153 17.5441 12.2297C17.4618 12.6265 17.4652 13.0362 17.554 13.4315C17.651 13.8418 17.8449 14.2229 18.1195 14.5428L18.1888 14.6262C18.3314 14.7945 18.4938 14.945 18.6724 15.0744C18.8564 15.2075 19.054 15.3208 19.2619 15.4123C19.4805 15.5068 19.7078 15.5797 19.9406 15.63C20.186 15.6843 20.4359 15.716 20.6871 15.7248H20.8285H20.9699H21.1112L21.2526 15.7149H21.3799H21.5071H21.6344H21.763C22.0152 15.7235 22.2661 15.7557 22.5124 15.811C22.7609 15.8651 23.0038 15.9428 23.2377 16.0429C23.7236 16.2508 24.1619 16.5558 24.5257 16.9393C24.9101 17.3448 25.1998 17.8306 25.374 18.3616C25.5459 18.8921 25.6014 19.4534 25.5366 20.0073C25.464 20.582 25.2713 21.135 24.971 21.6304C24.503 22.4116 23.806 23.0301 22.9747 23.4019C22.7267 23.5122 22.4693 23.5998 22.2055 23.6635C21.9471 23.7254 21.6835 23.7638 21.418 23.778C21.158 23.792 20.8973 23.7826 20.639 23.7497C20.1682 23.6926 19.7111 23.5528 19.2888 23.3369C19.0819 23.2309 18.8851 23.1065 18.7006 22.9651C18.5137 22.8195 18.341 22.6567 18.1846 22.4787C17.945 22.2117 17.7442 21.9123 17.5879 21.5894C17.4405 21.2856 17.3353 20.9631 17.2755 20.6308C17.2164 20.3078 17.1989 19.9785 17.2232 19.651C17.2461 19.3261 17.3083 19.0052 17.4084 18.6953C17.5013 18.4101 17.5634 18.1157 17.5936 17.8173C17.622 17.5378 17.6177 17.2559 17.5809 16.9774C17.547 16.7142 17.4785 16.4565 17.3773 16.2111C17.2789 15.9728 17.1481 15.7491 16.9885 15.5466L16.9206 15.4618C16.6561 15.1287 16.3171 14.8624 15.9309 14.6842C15.743 14.5974 15.5463 14.5311 15.3442 14.4862C15.1402 14.4407 14.9324 14.4151 14.7235 14.4099C14.5096 14.4045 14.2957 14.4187 14.0844 14.4523C13.8664 14.4875 13.6517 14.5409 13.4426 14.6121C13.2249 14.6888 13.014 14.7834 12.812 14.8948C12.6001 15.0106 12.3978 15.143 12.2068 15.2907L12.1121 15.3656C11.887 15.5395 11.6796 15.7351 11.4929 15.9496C11.3085 16.161 11.1443 16.3892 11.0023 16.631C10.8613 16.8719 10.7425 17.1251 10.6474 17.3874C10.5524 17.6497 10.4828 17.9206 10.4395 18.1962C10.3967 18.4634 10.3275 18.7258 10.2331 18.9794C10.1348 19.2469 10.0123 19.5048 9.86693 19.75C9.55946 20.2678 9.15871 20.7242 8.68496 21.096C8.48451 21.2518 8.2712 21.3904 8.04732 21.5102C7.83979 21.6208 7.62257 21.7122 7.39837 21.7831C7.19036 21.8482 6.97621 21.8918 6.75931 21.9132C6.55824 21.9358 6.35525 21.9358 6.15418 21.9132C5.94965 21.8877 5.74947 21.8349 5.55896 21.7562C5.37413 21.6808 5.20125 21.5788 5.04573 21.4537C4.88867 21.3275 4.75058 21.1794 4.63571 21.014C4.51416 20.8393 4.41667 20.6491 4.34588 20.4484C4.22842 20.1048 4.17616 19.7423 4.19177 19.3795C4.20638 18.9977 4.27639 18.6201 4.3996 18.2584C4.52701 17.8806 4.70184 17.5205 4.9199 17.1867C5.14395 16.8435 5.41098 16.5304 5.71448 16.255C5.91062 16.0756 6.12209 15.9139 6.34647 15.7714C6.5532 15.6391 6.77189 15.5264 6.99966 15.4349C7.21094 15.3493 7.43022 15.2848 7.65427 15.2426C7.86482 15.2027 8.07913 15.1861 8.29332 15.1932H8.38806L8.48137 15.2017L8.57469 15.2144L8.66658 15.2299L8.76555 15.2469L8.86594 15.2596L8.96773 15.2695H9.07094C9.27143 15.2766 9.47215 15.2648 9.67042 15.2342C9.87946 15.2012 10.0852 15.1501 10.2854 15.0815C10.4952 15.0096 10.6986 14.9202 10.8934 14.8143C11.0983 14.704 11.2936 14.5768 11.4773 14.4339L11.5706 14.3618C11.9391 14.0772 12.2607 13.7366 12.5236 13.3523C12.7611 13.0073 12.9393 12.625 13.0509 12.2213C13.1507 11.864 13.1747 11.4898 13.1216 11.1227C13.0733 10.7855 12.9367 10.467 12.7257 10.1995L12.6748 10.1358C12.5735 10.008 12.4545 9.89514 12.3214 9.80076C12.1905 9.70606 12.0479 9.6286 11.8972 9.5703C11.7387 9.51007 11.5743 9.46695 11.4066 9.44165C11.2292 9.41587 11.0499 9.40592 10.8708 9.41195H10.7718L10.6728 9.41903L10.5724 9.43033L10.4721 9.44448L10.3802 9.4572L10.2911 9.46709H10.2006H10.1129C9.94601 9.47318 9.77889 9.46324 9.61386 9.43741C9.46109 9.4126 9.31166 9.37038 9.16849 9.31157C9.03377 9.25564 8.90688 9.18244 8.791 9.09383C8.67867 9.00577 8.57962 8.90197 8.49692 8.78563C8.32804 8.54204 8.23327 8.25479 8.22405 7.95853C8.21443 7.63988 8.27075 7.32266 8.38947 7.0268C8.5222 6.69251 8.70634 6.38102 8.93521 6.10357C9.18961 5.79296 9.48607 5.51934 9.81604 5.29061C9.96069 5.18611 10.1123 5.09163 10.2699 5.00784C10.4212 4.92685 10.5775 4.85554 10.7379 4.79435C10.892 4.73697 11.0498 4.68974 11.2101 4.65296C11.363 4.61573 11.5185 4.58973 11.6752 4.5752C11.8162 4.56101 11.958 4.5577 12.0994 4.56531C12.2313 4.57247 12.3623 4.5909 12.491 4.62043C12.6146 4.64787 12.735 4.68816 12.8501 4.74062C12.9624 4.79097 13.0683 4.85457 13.1654 4.93007C13.3156 5.04571 13.4415 5.18985 13.5359 5.35422C13.6287 5.51433 13.691 5.69027 13.7197 5.87311C13.7501 6.06893 13.7501 6.26827 13.7197 6.46409C13.6856 6.68095 13.6248 6.89275 13.5387 7.09466C13.4555 7.28857 13.3939 7.49102 13.3549 7.69837C13.3186 7.8917 13.3072 8.08889 13.321 8.28512C13.334 8.47314 13.3755 8.6581 13.444 8.83369C13.5112 9.00963 13.6067 9.17344 13.7267 9.31865L13.7805 9.38085C13.89 9.50979 14.016 9.62387 14.1551 9.72017C14.299 9.81903 14.4542 9.9002 14.6175 9.96194C14.7891 10.0279 14.9673 10.0753 15.1491 10.1033C15.3417 10.1334 15.5366 10.1462 15.7316 10.1415L15.7273 10.1514ZM27.1356 0.620678L9.93621 2.68489C9.60258 2.72808 9.27689 2.81903 8.96915 2.95494C8.65082 3.09373 8.35033 3.27031 8.07418 3.48088C7.79857 3.6888 7.54931 3.9295 7.33191 4.19769C7.12248 4.45332 6.95323 4.73937 6.83 5.046L0.521431 21.1935C0.348155 21.6287 0.242769 22.0879 0.208968 22.5551C0.178759 22.9661 0.226734 23.3792 0.350352 23.7724C0.462578 24.1278 0.661844 24.4495 0.930033 24.7083C1.2075 24.9669 1.55441 25.1389 1.92821 25.2032L24.7533 29.3217C25.4231 29.4454 26.1118 29.4232 26.7723 29.2567C27.4044 29.0974 27.9944 28.8026 28.5014 28.3928C29.0062 27.987 29.416 27.4754 29.7018 26.8941C29.9965 26.2926 30.1563 25.634 30.1697 24.9642L30.6844 2.81778C30.693 2.45971 30.5946 2.10723 30.4016 1.80548C30.2053 1.50146 29.9385 1.24926 29.624 1.07027C29.274 0.869293 28.891 0.732364 28.4929 0.665913C28.042 0.589586 27.5824 0.579588 27.1286 0.636228L27.1356 0.620678ZM108.956 6.95751V9.7852H121.565V12.6836H108.956V15.4406H122.979V18.2683H104.715V4.12983H122.979V6.95751H108.956ZM62.2131 4.12982H67.9363L75.8411 18.2683H71.5996L69.4972 14.5089H60.6522L58.5498 18.2683H54.3083L62.2131 4.12982ZM65.0747 6.59841L62.2046 11.7335H67.9519L65.0747 6.59841ZM41.9951 6.95751V9.7852H54.6038V12.6836H41.9951V18.2683H37.7536V4.12983H56.0176V6.95751H41.9951ZM102.594 18.2683V4.12983H95.6788L90.0602 15.3671L84.4415 4.12983H77.5264V18.2683H81.768V6.41743L87.6934 18.2683H92.4269L98.3524 6.41743V18.2683H102.594ZM40.7806 25.8323V24.1866H38.633V25.8323H37.7536V21.9018H38.633V23.4203H40.7806V21.9018H41.6615V25.8323H40.7806ZM45.2781 24.263V25.8323H46.1646V24.263L47.8272 21.9018H46.8757L45.7362 23.5532L44.6051 21.9018H43.6154L45.2781 24.263ZM49.7741 25.8323V21.9018H51.6842C52.7851 21.9018 53.3356 22.3331 53.3356 23.1955C53.3356 23.6357 53.1942 23.9656 52.9114 24.1852C52.6286 24.4001 52.2045 24.5061 51.6192 24.5061H50.6436V25.8394L49.7741 25.8323ZM51.6121 23.812C51.837 23.8292 52.0617 23.7764 52.2554 23.6607C52.325 23.6046 52.38 23.5325 52.4154 23.4505C52.4509 23.3684 52.4659 23.279 52.459 23.1899C52.4666 23.1033 52.4526 23.0161 52.418 22.9364C52.3834 22.8566 52.3295 22.7868 52.2611 22.7332C52.0672 22.6225 51.8444 22.5732 51.622 22.5918H50.6422V23.8148L51.6121 23.812ZM55.527 21.9018V25.8323H58.8298L58.94 25.1113H56.4078V24.1696H58.7096V23.4486H56.4149V22.6229H58.8185V21.9018H55.527ZM64.0426 25.8323L63.183 24.3619H62.0335V25.8323H61.1852V21.9018H63.118C64.2151 21.9018 64.7637 22.3109 64.7637 23.1291C64.7717 23.363 64.707 23.5937 64.5785 23.7893C64.4357 23.9806 64.2386 24.1244 64.0129 24.2022L65.0026 25.8323H64.0426ZM63.0529 23.6847C63.2754 23.698 63.4972 23.649 63.6934 23.5433C63.7621 23.497 63.8173 23.4334 63.8535 23.359C63.8898 23.2845 63.9058 23.2018 63.8998 23.1192C63.9079 23.0375 63.894 22.9552 63.8597 22.8807C63.8254 22.8061 63.7719 22.742 63.7047 22.695C63.5064 22.5963 63.2851 22.5528 63.0642 22.5692H62.035V23.6748L63.0529 23.6847ZM73.9617 25.0802C74.0702 24.894 74.1374 24.6867 74.1587 24.4722L73.275 24.468C73.2271 24.6948 73.0927 24.8941 72.9003 25.0236C72.6682 25.1601 72.4017 25.2268 72.1326 25.2159C71.9587 25.2258 71.7847 25.1993 71.6216 25.1382C71.4585 25.0771 71.31 24.9827 71.1853 24.861C70.9631 24.579 70.8423 24.2304 70.8423 23.8713C70.8423 23.5123 70.9631 23.1637 71.1853 22.8816C71.3066 22.76 71.4521 22.6653 71.6124 22.6037C71.7727 22.5421 71.9442 22.5149 72.1157 22.5239C72.3626 22.5119 72.6079 22.5708 72.8226 22.6936C73.0155 22.832 73.1564 23.0311 73.2227 23.2591L74.0979 23.1545C73.8622 22.2553 73.1996 21.8057 72.11 21.8057C71.7056 21.7952 71.3048 21.8851 70.9436 22.0673C70.6251 22.2293 70.3618 22.4822 70.1872 22.794C70.0074 23.1236 69.9172 23.4946 69.9256 23.8699C69.9151 24.2576 70.0078 24.6411 70.1942 24.9812C70.3714 25.2896 70.6389 25.5363 70.9606 25.6881C71.3217 25.8572 71.717 25.9405 72.1157 25.9313C72.701 25.9304 73.1723 25.8036 73.5295 25.551C73.7057 25.4269 73.8531 25.2663 73.9617 25.0802ZM80.7528 23.8671C80.7615 24.2473 80.6677 24.6228 80.4814 24.9543C80.296 25.2673 80.0219 25.5183 79.6939 25.6754C79.3133 25.8425 78.9024 25.9296 78.4868 25.9313C78.0711 25.933 77.6595 25.8492 77.2776 25.6853C76.9494 25.5329 76.6735 25.287 76.4844 24.9784C76.3008 24.642 76.2036 24.2652 76.2016 23.8819C76.1996 23.4987 76.2929 23.1209 76.4731 22.7827C76.6577 22.4691 76.932 22.218 77.2606 22.0616C77.6412 21.8947 78.052 21.8076 78.4676 21.8057C78.8832 21.8037 79.2947 21.887 79.6769 22.0503C80.0051 22.2027 80.281 22.4486 80.4701 22.7572C80.6658 23.0936 80.7638 23.478 80.7528 23.8671ZM79.8395 23.8671C79.8505 23.6864 79.8245 23.5055 79.763 23.3352C79.7015 23.165 79.6058 23.0092 79.4818 22.8774C79.3459 22.7546 79.1869 22.6602 79.014 22.5997C78.8411 22.5393 78.6579 22.514 78.4751 22.5253C78.2928 22.5141 78.11 22.5397 77.9378 22.6006C77.7655 22.6616 77.6073 22.7567 77.4727 22.8802C77.2411 23.158 77.1142 23.5082 77.1142 23.8699C77.1142 24.2316 77.2411 24.5818 77.4727 24.8596C77.7116 25.0957 78.0467 25.2131 78.4808 25.2131C78.6629 25.2239 78.8453 25.1981 79.0173 25.1371C79.1892 25.0762 79.3472 24.9813 79.4818 24.8582C79.6058 24.726 79.7014 24.57 79.7629 24.3996C79.8244 24.2291 79.8505 24.0479 79.8395 23.8671ZM83.8364 23.0852L86.1099 25.8323H86.9129V21.9018H86.0646V24.6489L83.7912 21.9018H82.9881V25.8323H83.8364V23.0852ZM92.5103 25.8323L90.2383 23.0852V25.8323H89.39V21.9018H90.1931L92.4665 24.6489V21.9018H93.3148V25.8323H92.5103ZM95.8046 21.9018V25.8323H99.1144L99.2233 25.1113H96.6925V24.1696H98.9872V23.4486H96.6925V22.6229H99.096V21.9018H95.8046ZM105.506 24.4722C105.485 24.6867 105.418 24.894 105.309 25.0802C105.201 25.2663 105.053 25.4269 104.877 25.551C104.518 25.8036 104.047 25.9304 103.463 25.9313C103.064 25.9403 102.669 25.8571 102.307 25.6881C101.986 25.5358 101.719 25.2892 101.542 24.9812C101.355 24.6412 101.262 24.2577 101.272 23.8699C101.264 23.4946 101.354 23.1238 101.534 22.794C101.709 22.4824 101.973 22.2296 102.291 22.0673C102.653 21.8851 103.053 21.7952 103.458 21.8057C104.548 21.8057 105.211 22.2553 105.446 23.1545L104.57 23.2591C104.504 23.0311 104.363 22.832 104.17 22.6936C103.956 22.5708 103.71 22.5119 103.463 22.5239C103.292 22.5149 103.12 22.5421 102.96 22.6037C102.8 22.6653 102.654 22.76 102.533 22.8816C102.311 23.1637 102.19 23.5123 102.19 23.8713C102.19 24.2304 102.311 24.579 102.533 24.861C102.658 24.9827 102.806 25.0771 102.969 25.1382C103.132 25.1993 103.306 25.2258 103.48 25.2159C103.749 25.2302 104.017 25.1669 104.251 25.0335C104.443 24.904 104.578 24.7047 104.626 24.4779L105.506 24.4722ZM108.754 22.6342V25.8323H109.631V22.6342H111.172V21.9018H107.213V22.6342H108.754ZM113.246 25.8323V21.9018H116.537V22.6229H114.127V23.4486H116.423V24.1696H114.127V25.1113H116.659L116.549 25.8323H113.246ZM118.904 21.9018V25.8323H120.578C121.346 25.8323 121.938 25.6617 122.354 25.3205C122.769 24.9793 122.977 24.4948 122.977 23.8671C122.976 23.228 122.779 22.7407 122.386 22.4052C121.993 22.0696 121.42 21.9018 120.666 21.9018H118.904ZM121.703 24.7861C121.464 24.9953 121.097 25.1 120.616 25.1H119.779V22.6342H120.694C121.611 22.6342 122.07 23.0433 122.07 23.8614C122.07 24.2686 121.942 24.5768 121.703 24.7861Z" fill="black"/>
</svg>
